X-Men Quadrilogy

X-Men 
http://www.imdb.com/title/tt0120903/

X2 
http://www.imdb.com/title/tt0290334/

X-Men: The last stand 
http://www.imdb.com/title/tt0376994/

X-Men Origins: Wolverine 
http://www.imdb.com/title/tt0458525/

Source  :

X-Men.2000.BluRay.720p.x264.DTS-WiKi

X2.2003.BluRay.720p.x264.DTS-WiKi

X-Men.The.Last.Stand.2006.BluRay.720p.x264.DTS-WiKi

X-Men.Origins.Wolverine.BluRay.720p.x264.DTS-WiKi-1


Info X-men:

ID                               : 1
Format                           : AVC
Format/Info                      : Advanced Video Codec
Format profile                   : Baseline@L2.0
Format settings, CABAC           : No
Format settings, ReFrames        : 3 frames
Codec ID                         : avc1
Codec ID/Info                    : Advanced Video Coding
Duration                         : 1h 44mn
Bit rate mode                    : Variable
Bit rate                         : 400 Kbps
Width                            : 480 pixels
Height                           : 208 pixels
Display aspect ratio             : 2.35:1
Frame rate mode                  : Variable
Frame rate                       : 23.976 fps
Minimum frame rate               : 23.810 fps
Maximum frame rate               : 24.390 fps
Color space                      : YUV
Chroma subsampling               : 4:2:0
Bit depth                        : 8 bits
Scan type                        : Progressive
Bits/(Pixel*Frame)               : 0.167
Stream size                      : 298 MiB (75%)
Writing library                  : x264 core 79

ID                               : 2
Format                           : AAC
Format/Info                      : Advanced Audio Codec
Format version                   : Version 4
Format profile                   : LC
Format settings, SBR             : No
Codec ID                         : 40
Duration                         : 1h 44mn
Bit rate mode                    : Variable
Bit rate                         : 128 Kbps
Maximum bit rate                 : 234 Kbps
Channel(s)                       : 2 channels
Channel positions                : Front: L R
Sampling rate                    : 48.0 KHz
Stream size                      : 95.5 MiB (24%)
Language                         : English


Screens : 
http://img192.imageshack.us/img192/5147/x2ooom4vthumbs201007061.jpg 
http://img208.imageshack.us/img208/6024/xmenoriginswolverineooo.jpg 
http://img180.imageshack.us/img180/4263/xmenthelaststandooom4vt.jpg 
http://img716.imageshack.us/img716/8204/xmenooom4vthumbs2010070.jpg




PLEASE LET THE TORRENT SEED AND SHARE IT WITH ALL YOU KNOW!

Let me know what I can do to be your trusted source of Handheld videos. 
http://thepiratebay.org/user/on.off.on/ -OOO


PLEASE LEAVE A COMMENT IF YOU LIKE THIS RELEASE :)